<?xml version="1.0" encoding="UTF-8" standalone="no"?>
<!-- Created with Inkscape (http://www.inkscape.org/) -->

<svg
   xmlns:dc="http://purl.org/dc/elements/1.1/"
   xmlns:cc="http://creativecommons.org/ns#"
   xmlns:rdf="http://www.w3.org/1999/02/22-rdf-syntax-ns#"
   xmlns:svg="http://www.w3.org/2000/svg"
   xmlns="http://www.w3.org/2000/svg"
   xmlns:sodipodi="http://sodipodi.sourceforge.net/DTD/sodipodi-0.dtd"
   xmlns:inkscape="http://www.inkscape.org/namespaces/inkscape"
   version="1.1"
   id="svg2"
   xml:space="preserve"
   width="4000"
   height="4000"
   viewBox="0 0 4000 4000"
   sodipodi:docname="pattern.svg"
   inkscape:version="0.92.2 (unknown)"><metadata
     id="metadata8"><rdf:RDF><cc:Work
         rdf:about=""><dc:format>image/svg+xml</dc:format><dc:type
           rdf:resource="http://purl.org/dc/dcmitype/StillImage" /><dc:title></dc:title></cc:Work></rdf:RDF></metadata><defs
     id="defs6"><clipPath
       clipPathUnits="userSpaceOnUse"
       id="clipPath22"><path
         d="M 0.435,0 H 500.001 V 500 H 0.435 Z"
         id="path20"
         inkscape:connector-curvature="0" /></clipPath><clipPath
       clipPathUnits="userSpaceOnUse"
       id="clipPath38"><path
         d="M 0.435,0 H 500.001 V 500 H 0.435 Z"
         id="path36"
         inkscape:connector-curvature="0" /></clipPath><clipPath
       clipPathUnits="userSpaceOnUse"
       id="clipPath66"><path
         d="M 0.435,0 H 500.001 V 500 H 0.435 Z"
         id="path64"
         inkscape:connector-curvature="0" /></clipPath><clipPath
       clipPathUnits="userSpaceOnUse"
       id="clipPath74"><path
         d="M 353.37,463.674 H 544.856 V 266.95 H 353.37 Z"
         id="path72"
         inkscape:connector-curvature="0" /></clipPath><clipPath
       clipPathUnits="userSpaceOnUse"
       id="clipPath130"><path
         d="M 238.354,622.263 H 429.84 V 425.54 H 238.354 Z"
         id="path128"
         inkscape:connector-curvature="0" /></clipPath><clipPath
       clipPathUnits="userSpaceOnUse"
       id="clipPath162"><path
         d="M 237.138,71.6038 H 428.623 V -125.12 H 237.138 Z"
         id="path160"
         inkscape:connector-curvature="0" /></clipPath><clipPath
       clipPathUnits="userSpaceOnUse"
       id="clipPath194"><path
         d="M 353.37,227.607 H 544.856 V 30.8834 H 353.37 Z"
         id="path192"
         inkscape:connector-curvature="0" /></clipPath><clipPath
       clipPathUnits="userSpaceOnUse"
       id="clipPath290"><path
         d="M 0.435,0 H 500.001 V 500 H 0.435 Z"
         id="path288"
         inkscape:connector-curvature="0" /></clipPath><clipPath
       clipPathUnits="userSpaceOnUse"
       id="clipPath316"><path
         d="M 0,500 H 500 V 0 H 0 Z"
         id="path314"
         inkscape:connector-curvature="0" /></clipPath></defs><sodipodi:namedview
     pagecolor="#ffffff"
     bordercolor="#666666"
     borderopacity="1"
     objecttolerance="10"
     gridtolerance="10"
     guidetolerance="10"
     inkscape:pageopacity="0"
     inkscape:pageshadow="2"
     inkscape:window-width="1650"
     inkscape:window-height="1027"
     id="namedview4"
     showgrid="false"
     inkscape:zoom="0.16235856"
     inkscape:cx="1870.6403"
     inkscape:cy="2456.1709"
     inkscape:window-x="0"
     inkscape:window-y="0"
     inkscape:window-maximized="0"
     inkscape:current-layer="g10" /><g
     id="g10"
     inkscape:groupmode="layer"
     inkscape:label="208170-OZRN0V-550"
     transform="matrix(1.3333333,0,0,-1.3333333,0,4000)"><g
       id="g12"
       transform="matrix(6.0052091,0,0,6.0052091,0.4347,3002.607)"><path
         d="M 0,0 V -500 H 243.151 L 0.703,-250.651 258.254,0 Z"
         style="fill:#a48692;fill-opacity:1;fill-rule:nonzero;stroke:none"
         id="path14"
         inkscape:connector-curvature="0" /></g><g
       id="g16"
       transform="matrix(6.0052091,0,0,6.0052091,-2.1757644,0)"><g
         id="g18"
         clip-path="url(#clipPath22)"><g
           id="g24"
           transform="translate(-12.383,309.4202)"><path
             d="m 0,0 266.782,-266.578 88.912,88.912 130.849,-130.849"
             style="fill:none;stroke:#4b899a;stroke-width:2;stroke-linecap:butt;stroke-linejoin:miter;stroke-miterlimit:10;stroke-dasharray:none;stroke-opacity:1"
             id="path26"
             inkscape:connector-curvature="0" /></g></g></g><g
       id="g28"
       transform="matrix(6.0052091,0,0,6.0052091,2427.3235,1497.3977)"><path
         d="M 0,0 -150.652,150.652 -301.305,0 -150.652,-150.652 Z"
         style="fill:none;stroke:#e06364;stroke-width:2;stroke-linecap:butt;stroke-linejoin:miter;stroke-miterlimit:10;stroke-dasharray:none;stroke-opacity:1"
         id="path30"
         inkscape:connector-curvature="0" /></g><g
       id="g32"
       transform="matrix(6.0052091,0,0,6.0052091,-2.1757644,0)"><g
         id="g34"
         clip-path="url(#clipPath38)"><g
           id="g40"
           transform="translate(-14.0364,185.4475)"><path
             d="m 0,0 268.436,268.663 88.912,-88.912 134.048,134.048"
             style="fill:none;stroke:#4b899a;stroke-width:2;stroke-linecap:butt;stroke-linejoin:miter;stroke-miterlimit:10;stroke-dasharray:none;stroke-opacity:1"
             id="path42"
             inkscape:connector-curvature="0" /></g></g></g><g
       id="g44"
       transform="matrix(6.0052091,0,0,6.0052091,1140.505,1497.3977)"><path
         d="M 0,0 -82.05,-82.05 -164.1,0 -82.05,82.05 Z"
         style="fill:#e06364;fill-opacity:1;fill-rule:nonzero;stroke:none"
         id="path46"
         inkscape:connector-curvature="0" /></g><g
       id="g48"
       transform="matrix(6.0052091,0,0,6.0052091,1302.1166,1902.7301)"><path
         d="M 0,0 -42.831,-42.831 -85.663,0 -42.831,42.832 Z"
         style="fill:#4b899a;fill-opacity:1;fill-rule:nonzero;stroke:none"
         id="path50"
         inkscape:connector-curvature="0" /></g><g
       id="g52"
       transform="matrix(6.0052091,0,0,6.0052091,1650.1449,2713.0015)"><path
         d="M 0,0 -21.235,-21.235 -42.47,0 -21.235,21.235 Z"
         style="fill:#a48692;fill-opacity:1;fill-rule:nonzero;stroke:none"
         id="path54"
         inkscape:connector-curvature="0" /></g><g
       id="g56"
       transform="matrix(6.0052091,0,0,6.0052091,2190.6822,2387.491)"><path
         d="M 0,0 -21.235,-21.235 -42.47,0 -21.235,21.235 Z"
         style="fill:#4b899a;fill-opacity:1;fill-rule:nonzero;stroke:none"
         id="path58"
         inkscape:connector-curvature="0" /></g><g
       id="g60"
       transform="matrix(6.0052091,0,0,6.0052091,-2.1757644,0)"><g
         id="g62"
         clip-path="url(#clipPath66)"><g
           id="g68"><g
             id="g70" /><g
             id="g122"><g
               clip-path="url(#clipPath74)"
               id="g120"
               style="opacity:0.30000299"><g
                 transform="translate(395.8403,357.3755)"
                 id="g78"><path
                   d="M 0,0 -21.235,-21.235 -42.47,0 -21.235,21.235 Z"
                   style="fill:#4b899a;fill-opacity:1;fill-rule:nonzero;stroke:none"
                   id="path76"
                   inkscape:connector-curvature="0" /></g><g
                 transform="translate(417.0753,378.6105)"
                 id="g82"><path
                   d="M 0,0 -21.235,-21.235 -42.47,0 -21.235,21.235 Z"
                   style="fill:#a48692;fill-opacity:1;fill-rule:nonzero;stroke:none"
                   id="path80"
                   inkscape:connector-curvature="0" /></g><g
                 transform="translate(417.0753,336.1406)"
                 id="g86"><path
                   d="M 0,0 -21.235,-21.235 -42.47,0 -21.235,21.235 Z"
                   style="fill:#e06364;fill-opacity:1;fill-rule:nonzero;stroke:none"
                   id="path84"
                   inkscape:connector-curvature="0" /></g><g
                 transform="translate(438.3103,399.8455)"
                 id="g90"><path
                   d="M 0,0 -21.235,-21.235 -42.47,0 -21.235,21.235 Z"
                   style="fill:#e06364;fill-opacity:1;fill-rule:nonzero;stroke:none"
                   id="path88"
                   inkscape:connector-curvature="0" /></g><g
                 transform="translate(438.3103,357.3755)"
                 id="g94"><path
                   d="M 0,0 -21.235,-21.235 -42.47,0 -21.235,21.235 Z"
                   style="fill:#e1ab83;fill-opacity:1;fill-rule:nonzero;stroke:none"
                   id="path92"
                   inkscape:connector-curvature="0" /></g><g
                 transform="translate(502.2622,421.0805)"
                 id="g98"><path
                   d="M 0,0 -42.593,-42.593 -85.187,0 -42.593,42.594 Z"
                   style="fill:#e1ab83;fill-opacity:1;fill-rule:nonzero;stroke:none"
                   id="path96"
                   inkscape:connector-curvature="0" /></g><g
                 transform="translate(438.3103,288.1852)"
                 id="g102"><path
                   d="M 0,0 -21.235,-21.235 -42.47,0 -21.235,21.235 Z"
                   style="fill:#4b899a;fill-opacity:1;fill-rule:nonzero;stroke:none"
                   id="path100"
                   inkscape:connector-curvature="0" /></g><g
                 transform="translate(459.5453,336.1406)"
                 id="g106"><path
                   d="M 0,0 -21.235,-21.235 -42.47,0 -21.235,21.235 Z"
                   style="fill:#a48692;fill-opacity:1;fill-rule:nonzero;stroke:none"
                   id="path104"
                   inkscape:connector-curvature="0" /></g><g
                 transform="translate(480.7803,357.3755)"
                 id="g110"><path
                   d="M 0,0 -21.235,-21.235 -42.47,0 -21.235,21.235 Z"
                   style="fill:#e06364;fill-opacity:1;fill-rule:nonzero;stroke:none"
                   id="path108"
                   inkscape:connector-curvature="0" /></g><g
                 transform="translate(459.5453,378.6105)"
                 id="g114"><path
                   d="M 0,0 -21.235,-21.235 -42.47,0 -21.235,21.235 Z"
                   style="fill:#4b899a;fill-opacity:1;fill-rule:nonzero;stroke:none"
                   id="path112"
                   inkscape:connector-curvature="0" /></g><g
                 transform="translate(544.8557,378.4871)"
                 id="g118"><path
                   d="M 0,0 -42.594,-42.594 -85.187,0 -42.594,42.593 Z"
                   style="fill:#a48692;fill-opacity:1;fill-rule:nonzero;stroke:none"
                   id="path116"
                   inkscape:connector-curvature="0" /></g></g></g></g><g
           id="g124"><g
             id="g126" /><g
             id="g154"><g
               clip-path="url(#clipPath130)"
               id="g152"
               style="opacity:0.30000299"><g
                 transform="translate(302.0592,510.6031)"
                 id="g134"><path
                   d="M 0,0 -21.235,21.235 -42.47,0 -21.235,-21.235 Z"
                   style="fill:#a48692;fill-opacity:1;fill-rule:nonzero;stroke:none"
                   id="path132"
                   inkscape:connector-curvature="0" /></g><g
                 transform="translate(323.2942,489.3681)"
                 id="g138"><path
                   d="M 0,0 -21.235,21.235 -42.47,0 -21.235,-21.235 Z"
                   style="fill:#e06364;fill-opacity:1;fill-rule:nonzero;stroke:none"
                   id="path136"
                   inkscape:connector-curvature="0" /></g><g
                 transform="translate(387.2461,468.1331)"
                 id="g142"><path
                   d="M 0,0 -42.593,42.594 -85.187,0 -42.593,-42.593 Z"
                   style="fill:#e1ab83;fill-opacity:1;fill-rule:nonzero;stroke:none"
                   id="path140"
                   inkscape:connector-curvature="0" /></g><g
                 transform="translate(344.5292,510.6031)"
                 id="g146"><path
                   d="M 0,0 -21.235,21.235 -42.47,0 -21.235,-21.235 Z"
                   style="fill:#4b899a;fill-opacity:1;fill-rule:nonzero;stroke:none"
                   id="path144"
                   inkscape:connector-curvature="0" /></g><g
                 transform="translate(429.8396,510.7266)"
                 id="g150"><path
                   d="M 0,0 -42.594,42.594 -85.187,0 -42.594,-42.594 Z"
                   style="fill:#a48692;fill-opacity:1;fill-rule:nonzero;stroke:none"
                   id="path148"
                   inkscape:connector-curvature="0" /></g></g></g></g><g
           id="g156"><g
             id="g158" /><g
             id="g186"><g
               clip-path="url(#clipPath162)"
               id="g184"
               style="opacity:0.30000299"><g
                 transform="translate(300.8427,-13.4596)"
                 id="g166"><path
                   d="M 0,0 -21.235,-21.235 -42.47,0 -21.235,21.235 Z"
                   style="fill:#a48692;fill-opacity:1;fill-rule:nonzero;stroke:none"
                   id="path164"
                   inkscape:connector-curvature="0" /></g><g
                 transform="translate(322.0777,7.7753)"
                 id="g170"><path
                   d="M 0,0 -21.235,-21.235 -42.47,0 -21.235,21.235 Z"
                   style="fill:#e06364;fill-opacity:1;fill-rule:nonzero;stroke:none"
                   id="path168"
                   inkscape:connector-curvature="0" /></g><g
                 transform="translate(386.0296,29.0103)"
                 id="g174"><path
                   d="M 0,0 -42.593,-42.593 -85.187,0 -42.593,42.594 Z"
                   style="fill:#e1ab83;fill-opacity:1;fill-rule:nonzero;stroke:none"
                   id="path172"
                   inkscape:connector-curvature="0" /></g><g
                 transform="translate(343.3127,-13.4596)"
                 id="g178"><path
                   d="M 0,0 -21.235,-21.235 -42.47,0 -21.235,21.235 Z"
                   style="fill:#4b899a;fill-opacity:1;fill-rule:nonzero;stroke:none"
                   id="path176"
                   inkscape:connector-curvature="0" /></g><g
                 transform="translate(428.6231,-13.5831)"
                 id="g182"><path
                   d="M 0,0 -42.593,-42.594 -85.187,0 -42.593,42.593 Z"
                   style="fill:#a48692;fill-opacity:1;fill-rule:nonzero;stroke:none"
                   id="path180"
                   inkscape:connector-curvature="0" /></g></g></g></g><g
           id="g188"><g
             id="g190" /><g
             id="g242"><g
               clip-path="url(#clipPath194)"
               id="g240"
               style="opacity:0.30000299"><g
                 transform="translate(395.8403,137.1818)"
                 id="g198"><path
                   d="M 0,0 -21.235,21.235 -42.47,0 -21.235,-21.235 Z"
                   style="fill:#4b899a;fill-opacity:1;fill-rule:nonzero;stroke:none"
                   id="path196"
                   inkscape:connector-curvature="0" /></g><g
                 transform="translate(417.0753,115.9468)"
                 id="g202"><path
                   d="M 0,0 -21.235,21.235 -42.47,0 -21.235,-21.235 Z"
                   style="fill:#a48692;fill-opacity:1;fill-rule:nonzero;stroke:none"
                   id="path200"
                   inkscape:connector-curvature="0" /></g><g
                 transform="translate(417.0753,158.4168)"
                 id="g206"><path
                   d="M 0,0 -21.235,21.235 -42.47,0 -21.235,-21.235 Z"
                   style="fill:#e06364;fill-opacity:1;fill-rule:nonzero;stroke:none"
                   id="path204"
                   inkscape:connector-curvature="0" /></g><g
                 transform="translate(438.3103,94.7118)"
                 id="g210"><path
                   d="M 0,0 -21.235,21.235 -42.47,0 -21.235,-21.235 Z"
                   style="fill:#e06364;fill-opacity:1;fill-rule:nonzero;stroke:none"
                   id="path208"
                   inkscape:connector-curvature="0" /></g><g
                 transform="translate(438.3103,137.1818)"
                 id="g214"><path
                   d="M 0,0 -21.235,21.235 -42.47,0 -21.235,-21.235 Z"
                   style="fill:#e1ab83;fill-opacity:1;fill-rule:nonzero;stroke:none"
                   id="path212"
                   inkscape:connector-curvature="0" /></g><g
                 transform="translate(502.2622,73.4769)"
                 id="g218"><path
                   d="M 0,0 -42.593,42.593 -85.187,0 -42.593,-42.593 Z"
                   style="fill:#e1ab83;fill-opacity:1;fill-rule:nonzero;stroke:none"
                   id="path216"
                   inkscape:connector-curvature="0" /></g><g
                 transform="translate(438.3103,206.3722)"
                 id="g222"><path
                   d="M 0,0 -21.235,21.235 -42.47,0 -21.235,-21.235 Z"
                   style="fill:#4b899a;fill-opacity:1;fill-rule:nonzero;stroke:none"
                   id="path220"
                   inkscape:connector-curvature="0" /></g><g
                 transform="translate(459.5453,158.4168)"
                 id="g226"><path
                   d="M 0,0 -21.235,21.235 -42.47,0 -21.235,-21.235 Z"
                   style="fill:#a48692;fill-opacity:1;fill-rule:nonzero;stroke:none"
                   id="path224"
                   inkscape:connector-curvature="0" /></g><g
                 transform="translate(480.7803,137.1818)"
                 id="g230"><path
                   d="M 0,0 -21.235,21.235 -42.47,0 -21.235,-21.235 Z"
                   style="fill:#e06364;fill-opacity:1;fill-rule:nonzero;stroke:none"
                   id="path228"
                   inkscape:connector-curvature="0" /></g><g
                 transform="translate(459.5453,115.9468)"
                 id="g234"><path
                   d="M 0,0 -21.235,21.235 -42.47,0 -21.235,-21.235 Z"
                   style="fill:#4b899a;fill-opacity:1;fill-rule:nonzero;stroke:none"
                   id="path232"
                   inkscape:connector-curvature="0" /></g><g
                 transform="translate(544.8557,116.0703)"
                 id="g238"><path
                   d="M 0,0 -42.594,42.594 -85.187,0 -42.594,-42.593 Z"
                   style="fill:#a48692;fill-opacity:1;fill-rule:nonzero;stroke:none"
                   id="path236"
                   inkscape:connector-curvature="0" /></g></g></g></g></g></g><g
       id="g244"
       transform="matrix(6.0052091,0,0,6.0052091,2190.6822,592.69913)"><path
         d="M 0,0 -21.235,-21.235 -42.47,0 -21.235,21.235 Z"
         style="fill:#4b899a;fill-opacity:1;fill-rule:nonzero;stroke:none"
         id="path246"
         inkscape:connector-curvature="0" /></g><g
       id="g248"
       transform="matrix(6.0052091,0,0,6.0052091,617.92573,2018.5057)"><path
         d="M 0,0 -21.235,-21.235 -42.47,0 -21.235,21.235 Z"
         style="fill:#a48692;fill-opacity:1;fill-rule:nonzero;stroke:none"
         id="path250"
         inkscape:connector-curvature="0" /></g><g
       id="g252"
       transform="matrix(6.0052091,0,0,6.0052091,617.92573,2018.5057)"><path
         d="M 0,0 -21.235,-21.235 -42.47,0 -21.235,21.235 Z"
         style="fill:none;stroke:#ffffff;stroke-width:3;stroke-linecap:butt;stroke-linejoin:miter;stroke-miterlimit:10;stroke-dasharray:none;stroke-opacity:1"
         id="path254"
         inkscape:connector-curvature="0" /></g><g
       id="g256"
       transform="matrix(6.0052091,0,0,6.0052091,1187.1781,2457.9603)"><path
         d="M 0,0 -35.591,-35.591 -71.181,0 l 35.59,35.591 z"
         style="fill:#e1ab83;fill-opacity:1;fill-rule:nonzero;stroke:none"
         id="path258"
         inkscape:connector-curvature="0" /></g><g
       id="g260"
       transform="matrix(6.0052091,0,0,6.0052091,1187.1781,2457.9603)"><path
         d="M 0,0 -35.591,-35.591 -71.181,0 l 35.59,35.591 z"
         style="fill:none;stroke:#ffffff;stroke-width:2;stroke-linecap:butt;stroke-linejoin:miter;stroke-miterlimit:10;stroke-dasharray:none;stroke-opacity:1"
         id="path262"
         inkscape:connector-curvature="0" /></g><g
       id="g264"
       transform="matrix(6.0052091,0,0,6.0052091,1187.1781,508.41361)"><path
         d="M 0,0 -35.591,-35.591 -71.181,0 l 35.59,35.591 z"
         style="fill:#e1ab83;fill-opacity:1;fill-rule:nonzero;stroke:none"
         id="path266"
         inkscape:connector-curvature="0" /></g><g
       id="g268"
       transform="matrix(6.0052091,0,0,6.0052091,1187.1781,508.41361)"><path
         d="M 0,0 -35.591,-35.591 -71.181,0 l 35.59,35.591 z"
         style="fill:none;stroke:#ffffff;stroke-width:2;stroke-linecap:butt;stroke-linejoin:miter;stroke-miterlimit:10;stroke-dasharray:none;stroke-opacity:1"
         id="path270"
         inkscape:connector-curvature="0" /></g><g
       id="g272"
       transform="matrix(6.0052091,0,0,6.0052091,617.92573,976.20139)"><path
         d="M 0,0 -21.235,-21.235 -42.47,0 -21.235,21.235 Z"
         style="fill:#a48692;fill-opacity:1;fill-rule:nonzero;stroke:none"
         id="path274"
         inkscape:connector-curvature="0" /></g><g
       id="g276"
       transform="matrix(6.0052091,0,0,6.0052091,617.92573,976.20139)"><path
         d="M 0,0 -21.235,-21.235 -42.47,0 -21.235,21.235 Z"
         style="fill:none;stroke:#ffffff;stroke-width:3;stroke-linecap:butt;stroke-linejoin:miter;stroke-miterlimit:10;stroke-dasharray:none;stroke-opacity:1"
         id="path278"
         inkscape:connector-curvature="0" /></g><g
       id="g280"
       transform="matrix(6.0052091,0,0,6.0052091,1296.8867,1092.0653)"><path
         d="M 0,0 -42.832,-42.831 -85.663,0 -42.832,42.831 Z"
         style="fill:#4b899a;fill-opacity:1;fill-rule:nonzero;stroke:none"
         id="path282"
         inkscape:connector-curvature="0" /></g><g
       id="g284"
       transform="matrix(6.0052091,0,0,6.0052091,-2.1757644,0)"><g
         id="g286"
         clip-path="url(#clipPath290)"><g
           id="g292"
           transform="translate(-12.3947,317.3589)"><path
             d="M 0,0 182.641,182.641"
             style="fill:none;stroke:#ffffff;stroke-width:3;stroke-linecap:butt;stroke-linejoin:miter;stroke-miterlimit:10;stroke-dasharray:none;stroke-opacity:1"
             id="path294"
             inkscape:connector-curvature="0" /></g><g
           id="g296"
           transform="translate(170.2464,-0.6502)"><path
             d="M 0,0 -182.64,182.64"
             style="fill:none;stroke:#ffffff;stroke-width:3;stroke-linecap:butt;stroke-linejoin:miter;stroke-miterlimit:10;stroke-dasharray:none;stroke-opacity:1"
             id="path298"
             inkscape:connector-curvature="0" /></g></g></g><g
       id="g300"
       transform="matrix(6.0052091,0,0,6.0052091,2301.8818,1497.3977)"><path
         d="M 0,0 -39.761,39.761 V -39.761 Z"
         style="fill:#e06364;fill-opacity:1;fill-rule:nonzero;stroke:none"
         id="path302"
         inkscape:connector-curvature="0" /></g><g
       transform="matrix(6.0052091,0,0,6.0052091,1713.7284,1500)"
       id="g795"><path
         inkscape:connector-curvature="0"
         id="path793"
         style="fill:#e1ab83;fill-opacity:1;fill-rule:nonzero;stroke:none"
         d="M 0,0 -35.591,-35.591 -71.181,0 l 35.59,35.591 z" /></g></g></svg>