<?xml version="1.0" encoding="UTF-8" standalone="no"?>
<!-- Generator: Adobe Illustrator 21.1.0, SVG Export Plug-In . SVG Version: 6.00 Build 0)  -->

<svg
   xmlns:dc="http://purl.org/dc/elements/1.1/"
   xmlns:cc="http://creativecommons.org/ns#"
   xmlns:rdf="http://www.w3.org/1999/02/22-rdf-syntax-ns#"
   xmlns:svg="http://www.w3.org/2000/svg"
   xmlns="http://www.w3.org/2000/svg"
   xmlns:sodipodi="http://sodipodi.sourceforge.net/DTD/sodipodi-0.dtd"
   xmlns:inkscape="http://www.inkscape.org/namespaces/inkscape"
   version="1.1"
   id="Layer_1"
   x="0px"
   y="0px"
   width="72px"
   height="17.8px"
   viewBox="0 0 72 17.8"
   enable-background="new 0 0 72 17.8"
   xml:space="preserve"
   sodipodi:docname="logo-outline.svg"
   inkscape:version="0.92.2 (unknown)"><metadata
     id="metadata21"><rdf:RDF><cc:Work
         rdf:about=""><dc:format>image/svg+xml</dc:format><dc:type
           rdf:resource="http://purl.org/dc/dcmitype/StillImage" /><dc:title></dc:title></cc:Work></rdf:RDF></metadata><defs
     id="defs19" /><sodipodi:namedview
     pagecolor="#c8acac"
     bordercolor="#666666"
     borderopacity="1"
     objecttolerance="10"
     gridtolerance="10"
     guidetolerance="10"
     inkscape:pageopacity="0"
     inkscape:pageshadow="2"
     inkscape:window-width="1920"
     inkscape:window-height="1017"
     id="namedview17"
     showgrid="false"
     inkscape:zoom="4.1124253"
     inkscape:cx="90.784264"
     inkscape:cy="7.3628083"
     inkscape:window-x="0"
     inkscape:window-y="0"
     inkscape:window-maximized="1"
     inkscape:current-layer="Layer_1" /><path
     style="color:#000000;font-style:normal;font-variant:normal;font-weight:normal;font-stretch:normal;font-size:medium;line-height:normal;font-family:sans-serif;font-variant-ligatures:normal;font-variant-position:normal;font-variant-caps:normal;font-variant-numeric:normal;font-variant-alternates:normal;font-feature-settings:normal;text-indent:0;text-align:start;text-decoration:none;text-decoration-line:none;text-decoration-style:solid;text-decoration-color:#000000;letter-spacing:normal;word-spacing:normal;text-transform:none;writing-mode:lr-tb;direction:ltr;text-orientation:mixed;dominant-baseline:auto;baseline-shift:baseline;text-anchor:start;white-space:normal;shape-padding:0;clip-rule:nonzero;display:inline;overflow:visible;visibility:visible;opacity:1;isolation:auto;mix-blend-mode:normal;color-interpolation:sRGB;color-interpolation-filters:linearRGB;solid-color:#000000;solid-opacity:1;vector-effect:none;fill:#66646b;fill-opacity:1;fill-rule:nonzero;stroke:none;stroke-width:0.71600801;stroke-linecap:butt;stroke-linejoin:miter;stroke-miterlimit:4;stroke-dasharray:none;stroke-dashoffset:0;stroke-opacity:1;color-rendering:auto;image-rendering:auto;shape-rendering:auto;text-rendering:auto;enable-background:accumulate"
     d="M 0,-1.2129395e-6 V 0.35779479 17.799999 H 17.8 V -1.2129395e-6 Z M 0.71607421,0.71559079 H 17.083924 V 17.083924 H 0.71607421 Z M 8.528682,3.3374988 c -1.6203884,0 -2.9372126,1.316341 -2.9372126,2.93673 V 10.745957 H 6.3572798 V 6.2742288 c 0,-1.209703 0.9616994,-2.171886 2.1714022,-2.171886 h 1.48237 v -0.764844 z m -0.740218,3.716059 v 0.765327 h 1.4828513 c 1.2096587,0 2.1714027,0.962226 2.1714027,2.171885 v 4.4717292 h 0.765328 V 9.9907698 c 0,-1.620332 -1.316401,-2.937212 -2.9367307,-2.937212 z m 4.945e-4,2.937212 V 14.462499 H 8.5538022 V 12.609298 H 10.407003 V 11.843971 H 8.5538022 V 9.9907698 Z"
     id="rect903"
     inkscape:connector-curvature="0" /><g
     aria-label="felipe cezar"
     transform="matrix(0.25899869,0,0,0.25899869,15.646033,17.731279)"
     style="font-style:normal;font-variant:normal;font-weight:normal;font-stretch:normal;font-size:40px;line-height:1.25;font-family:'SFNS Display';-inkscape-font-specification:'SFNS Display, Normal';font-variant-ligatures:normal;font-variant-caps:normal;font-variant-numeric:normal;font-feature-settings:normal;text-align:start;letter-spacing:0px;word-spacing:0px;writing-mode:lr-tb;text-anchor:start;fill:#66646b;fill-opacity:1;stroke:none"
     id="flowRoot983"><path
       d="m 24.087891,-41.148554 h -2.929688 v -2.8125 h 2.929688 v -1.953125 q 0,-2.910156 1.328125,-4.257813 1.347656,-1.367187 4.277343,-1.367187 0.507813,0 0.957032,0.03906 0.449218,0.03906 0.9375,0.136719 v 2.8125 q -0.332032,-0.07813 -0.761719,-0.117187 -0.429688,-0.03906 -0.820313,-0.03906 -1.328125,0 -1.914062,0.664063 -0.585938,0.644531 -0.605469,2.128906 v 1.953125 h 4.101563 v 2.8125 h -4.101563 v 18.242187 h -3.398437 z"
       style="fill:#66646b;fill-opacity:1"
       id="path993" /><path
       d="m 42.701172,-41.168085 q -1.230469,0 -2.285156,0.429687 -1.054688,0.429688 -1.835938,1.210938 -0.761719,0.78125 -1.25,1.894531 -0.46875,1.09375 -0.546875,2.421875 h 11.582031 q -0.03906,-1.347656 -0.46875,-2.441406 -0.410156,-1.09375 -1.152343,-1.875 -0.742188,-0.78125 -1.777344,-1.210938 -1.015625,-0.429687 -2.265625,-0.429687 z m 8.945312,12.246093 q -0.214843,1.347657 -0.976562,2.5 -0.761719,1.132813 -1.933594,1.972657 -1.152344,0.820312 -2.65625,1.289062 -1.484375,0.449219 -3.164062,0.449219 -2.226563,0 -4.003907,-0.742188 -1.777343,-0.742187 -3.046875,-2.128906 -1.25,-1.386719 -1.933593,-3.359375 -0.664063,-1.972656 -0.664063,-4.414062 0,-2.441407 0.664063,-4.433594 0.683593,-1.992188 1.914062,-3.398438 1.25,-1.425781 3.007813,-2.1875 1.757812,-0.78125 3.90625,-0.78125 2.109375,0 3.789062,0.722657 1.699219,0.722656 2.890625,2.070312 1.191406,1.328125 1.816406,3.242188 0.644532,1.914062 0.644532,4.296875 v 1.328125 H 36.783203 v 0.195312 q 0,1.503906 0.429688,2.734375 0.449218,1.210938 1.269531,2.070313 0.820312,0.859375 1.953125,1.328125 1.152344,0.46875 2.558594,0.46875 0.996093,0 1.855468,-0.214844 0.859375,-0.234375 1.542969,-0.644531 0.703125,-0.429688 1.171875,-1.015625 0.488281,-0.605469 0.722656,-1.347657 z"
       style="fill:#66646b;fill-opacity:1"
       id="path995" /><path
       d="m 55.669922,-52.320429 h 3.398437 v 29.414062 h -3.398437 z"
       style="fill:#66646b;fill-opacity:1"
       id="path997" /><path
       d="m 64.107422,-43.961054 h 3.398437 v 21.054687 h -3.398437 z m 1.699219,-3.398438 q -0.449219,0 -0.839844,-0.15625 -0.390625,-0.175781 -0.683594,-0.46875 -0.292969,-0.292968 -0.46875,-0.683593 -0.15625,-0.390625 -0.15625,-0.839844 0,-0.449219 0.15625,-0.839844 0.175781,-0.390625 0.46875,-0.683594 0.292969,-0.292968 0.683594,-0.449218 0.390625,-0.175782 0.839844,-0.175782 0.449218,0 0.839843,0.175782 0.390625,0.15625 0.683594,0.449218 0.292969,0.292969 0.449219,0.683594 0.175781,0.390625 0.175781,0.839844 0,0.449219 -0.175781,0.839844 -0.15625,0.390625 -0.449219,0.683593 -0.292969,0.292969 -0.683594,0.46875 -0.390625,0.15625 -0.839843,0.15625 z"
       style="fill:#66646b;fill-opacity:1"
       id="path999" /><path
       d="m 82.466797,-44.156367 q 2.011719,0 3.671875,0.78125 1.660156,0.761719 2.851562,2.167969 1.191407,1.40625 1.835938,3.398438 0.664062,1.972656 0.664062,4.375 0,2.402343 -0.664062,4.394531 -0.644531,1.972656 -1.816406,3.378906 -1.171875,1.40625 -2.832032,2.1875 -1.640625,0.761719 -3.632812,0.761719 -2.246094,0 -3.984375,-0.9375 -1.738281,-0.9375 -2.734375,-2.675781 h -0.07813 v 10.449218 h -3.398438 v -28.085937 h 3.222657 v 3.417969 h 0.07813 q 0.46875,-0.820313 1.171875,-1.484375 0.722656,-0.664063 1.601562,-1.132813 0.898438,-0.488281 1.914063,-0.742187 1.035156,-0.253907 2.128906,-0.253907 z m -0.625,18.417969 q 1.386719,0 2.519531,-0.546875 1.152344,-0.546875 1.953125,-1.542969 0.820313,-1.015625 1.25,-2.421875 0.449219,-1.425781 0.449219,-3.183593 0,-1.738282 -0.449219,-3.164063 -0.429687,-1.425781 -1.25,-2.421875 -0.800781,-1.015625 -1.953125,-1.5625 -1.132812,-0.546875 -2.519531,-0.546875 -1.367188,0 -2.5,0.566406 -1.113281,0.546875 -1.933594,1.5625 -0.800781,1.015625 -1.25,2.441407 -0.429687,1.40625 -0.429687,3.125 0,1.71875 0.429687,3.144531 0.449219,1.40625 1.25,2.421875 0.820313,1.015625 1.933594,1.582031 1.132812,0.546875 2.5,0.546875 z"
       style="fill:#66646b;fill-opacity:1"
       id="path1001" /><path
       d="m 103.48242,-41.168085 q -1.23047,0 -2.28515,0.429687 -1.05469,0.429688 -1.835942,1.210938 -0.761719,0.78125 -1.25,1.894531 -0.46875,1.09375 -0.546875,2.421875 h 11.582027 q -0.0391,-1.347656 -0.46875,-2.441406 -0.41015,-1.09375 -1.15234,-1.875 -0.74219,-0.78125 -1.77734,-1.210938 -1.01563,-0.429687 -2.26563,-0.429687 z m 8.94531,12.246093 q -0.21484,1.347657 -0.97656,2.5 -0.76172,1.132813 -1.93359,1.972657 -1.15235,0.820312 -2.65625,1.289062 -1.48438,0.449219 -3.16406,0.449219 -2.22657,0 -4.003911,-0.742188 -1.777343,-0.742187 -3.046875,-2.128906 -1.25,-1.386719 -1.933593,-3.359375 -0.664063,-1.972656 -0.664063,-4.414062 0,-2.441407 0.664063,-4.433594 0.683593,-1.992188 1.914062,-3.398438 1.25,-1.425781 3.007813,-2.1875 1.757814,-0.78125 3.906254,-0.78125 2.10937,0 3.78906,0.722657 1.69922,0.722656 2.89062,2.070312 1.19141,1.328125 1.81641,3.242188 0.64453,1.914062 0.64453,4.296875 v 1.328125 H 97.564453 v 0.195312 q 0,1.503906 0.429688,2.734375 0.449218,1.210938 1.269531,2.070313 0.820308,0.859375 1.953128,1.328125 1.15234,0.46875 2.55859,0.46875 0.99609,0 1.85547,-0.214844 0.85937,-0.234375 1.54297,-0.644531 0.70312,-0.429688 1.17187,-1.015625 0.48828,-0.605469 0.72266,-1.347657 z"
       style="fill:#66646b;fill-opacity:1"
       id="path1003" /><path
       d="m 139.92773,-37.105585 q -0.15625,-0.839844 -0.58593,-1.5625 -0.42969,-0.742188 -1.13282,-1.289063 -0.68359,-0.546875 -1.62109,-0.859375 -0.9375,-0.3125 -2.12891,-0.3125 -1.38671,0 -2.51953,0.546875 -1.13281,0.546875 -1.95312,1.5625 -0.80078,0.996094 -1.25,2.421875 -0.44922,1.425781 -0.44922,3.164063 0,1.796875 0.44922,3.222656 0.44922,1.425781 1.26953,2.421875 0.82031,0.996094 1.95312,1.523437 1.15235,0.527344 2.53907,0.527344 2.20703,0 3.61328,-0.996094 1.40625,-0.996093 1.85547,-2.910156 h 3.33984 q -0.21484,1.542969 -0.95703,2.8125 -0.72266,1.269531 -1.875,2.1875 -1.15234,0.917969 -2.67578,1.425781 -1.52344,0.507813 -3.32031,0.507813 -2.16797,0 -3.94532,-0.742188 -1.77734,-0.742187 -3.04687,-2.128906 -1.26953,-1.40625 -1.97266,-3.378906 -0.68359,-1.992188 -0.68359,-4.472656 0,-2.421875 0.68359,-4.394532 0.70313,-1.992187 1.95313,-3.398437 1.26953,-1.40625 3.02734,-2.167969 1.77734,-0.761719 3.94531,-0.761719 1.95313,0 3.51563,0.585938 1.5625,0.585937 2.69531,1.5625 1.13281,0.976562 1.79688,2.246094 0.66406,1.269531 0.82031,2.65625 z"
       style="fill:#66646b;fill-opacity:1"
       id="path1005" /><path
       d="m 154.9668,-41.168085 q -1.23047,0 -2.28516,0.429687 -1.05469,0.429688 -1.83594,1.210938 -0.76172,0.78125 -1.25,1.894531 -0.46875,1.09375 -0.54687,2.421875 h 11.58203 q -0.0391,-1.347656 -0.46875,-2.441406 -0.41016,-1.09375 -1.15234,-1.875 -0.74219,-0.78125 -1.77735,-1.210938 -1.01562,-0.429687 -2.26562,-0.429687 z m 8.94531,12.246093 q -0.21484,1.347657 -0.97656,2.5 -0.76172,1.132813 -1.9336,1.972657 -1.15234,0.820312 -2.65625,1.289062 -1.48437,0.449219 -3.16406,0.449219 -2.22656,0 -4.00391,-0.742188 -1.77734,-0.742187 -3.04687,-2.128906 -1.25,-1.386719 -1.93359,-3.359375 -0.66407,-1.972656 -0.66407,-4.414062 0,-2.441407 0.66407,-4.433594 0.68359,-1.992188 1.91406,-3.398438 1.25,-1.425781 3.00781,-2.1875 1.75781,-0.78125 3.90625,-0.78125 2.10938,0 3.78906,0.722657 1.69922,0.722656 2.89063,2.070312 1.1914,1.328125 1.8164,3.242188 0.64454,1.914062 0.64454,4.296875 v 1.328125 h -15.11719 v 0.195312 q 0,1.503906 0.42969,2.734375 0.44921,1.210938 1.26953,2.070313 0.82031,0.859375 1.95312,1.328125 1.15235,0.46875 2.5586,0.46875 0.99609,0 1.85546,-0.214844 0.85938,-0.234375 1.54297,-0.644531 0.70313,-0.429688 1.17188,-1.015625 0.48828,-0.605469 0.72265,-1.347657 z"
       style="fill:#66646b;fill-opacity:1"
       id="path1007" /><path
       d="M 167.29102,-25.367304 179.0293,-41.08996 v -0.05859 h -11.71875 v -2.8125 h 15.54687 v 2.519531 l -11.66015,15.664063 v 0.05859 h 11.71875 v 2.8125 h -15.625 z"
       style="fill:#66646b;fill-opacity:1"
       id="path1009" /><path
       d="m 193.99023,-25.660273 q 1.28907,0 2.38282,-0.390625 1.09375,-0.390625 1.875,-1.09375 0.80078,-0.703125 1.25,-1.660156 0.44922,-0.976563 0.44922,-2.109375 v -1.699219 l -5.50782,0.351563 q -2.38281,0.15625 -3.59375,1.015625 -1.21093,0.839843 -1.21093,2.363281 0,0.742187 0.29296,1.328125 0.3125,0.585937 0.87891,1.015625 0.58594,0.429687 1.38672,0.664062 0.80078,0.214844 1.79687,0.214844 z m -0.72265,2.949219 q -1.60156,0 -2.91016,-0.429688 -1.30859,-0.449218 -2.24609,-1.25 -0.9375,-0.820312 -1.44531,-1.953125 -0.50782,-1.152343 -0.50782,-2.558593 0,-2.734375 2.01172,-4.277344 2.01172,-1.542969 5.87891,-1.777344 l 5.89844,-0.351562 v -1.757813 q 0,-1.972656 -1.25,-3.007812 -1.23047,-1.054688 -3.57422,-1.054688 -0.91797,0 -1.69922,0.234375 -0.78125,0.214844 -1.40625,0.644531 -0.60547,0.410157 -1.01563,1.015625 -0.39062,0.605469 -0.54687,1.347657 h -3.26172 q 0.0391,-1.328125 0.66406,-2.480469 0.625,-1.152344 1.69922,-1.992188 1.07422,-0.839843 2.5,-1.308593 1.44531,-0.488282 3.10547,-0.488282 1.875,0 3.37891,0.488282 1.5039,0.46875 2.57812,1.367187 1.07422,0.878906 1.64063,2.148438 0.58593,1.25 0.58593,2.792968 v 14.453125 h -3.22265 v -3.652343 h -0.0781 q -0.44922,0.878906 -1.15234,1.601562 -0.70313,0.703125 -1.58203,1.210938 -0.87891,0.488281 -1.91407,0.761718 -1.01562,0.273438 -2.1289,0.273438 z"
       style="fill:#66646b;fill-opacity:1"
       id="path1011" /><path
       d="m 207.89648,-43.961054 h 3.20313 v 3.417969 h 0.0781 q 0.23438,-0.820313 0.70313,-1.484375 0.48828,-0.683594 1.15234,-1.152344 0.66407,-0.46875 1.48438,-0.722656 0.83984,-0.253907 1.75781,-0.253907 0.3125,0 0.70313,0.03906 0.39062,0.03906 0.60546,0.09766 v 3.359375 q -0.21484,-0.09766 -0.76171,-0.15625 -0.54688,-0.07813 -0.9961,-0.07813 -1.03515,0 -1.875,0.371094 -0.82031,0.351562 -1.42578,0.996094 -0.58594,0.644531 -0.91797,1.5625 -0.3125,0.917968 -0.3125,2.03125 v 13.027343 h -3.39844 z"
       style="fill:#66646b;fill-opacity:1"
       id="path1013" /></g></svg>